<?xml version="1.0" standalone="no"?>
<!DOCTYPE svg PUBLIC "-//W3C//DTD SVG 20010904//EN"
 "http://www.w3.org/TR/2001/REC-SVG-20010904/DTD/svg10.dtd">
<svg version="1.0" xmlns="http://www.w3.org/2000/svg"
 width="165.000000pt" height="110.000000pt" viewBox="0 0 165.000000 110.000000"
 preserveAspectRatio="xMidYMid meet">

<g transform="translate(0.000000,110.000000) scale(0.100000,-0.100000)"
fill="#000000" stroke="none">
<path d="M0 550 l0 -550 825 0 825 0 0 550 0 550 -825 0 -825 0 0 -550z m200
64 l0 -336 28 7 c83 20 153 76 194 155 22 42 23 59 28 275 l5 230 37 3 37 3 3
-223 c3 -247 9 -273 77 -351 31 -34 139 -97 168 -97 11 0 13 62 13 336 l0 337
59 -6 c97 -10 167 -43 231 -106 32 -31 62 -65 69 -76 10 -19 12 -19 22 -2 21
36 73 89 115 118 55 38 107 56 184 65 l60 7 0 -377 0 -376 -35 0 -35 0 0 330
0 330 -22 0 c-65 -1 -164 -75 -206 -154 -27 -50 -27 -54 -30 -278 l-3 -228
-40 0 -39 0 0 210 c0 187 -2 215 -21 265 -32 85 -114 158 -201 180 l-28 7 0
-332 0 -333 -74 5 c-53 4 -90 13 -129 32 -53 25 -139 104 -162 146 -10 18 -13
16 -45 -27 -69 -93 -181 -153 -285 -153 l-55 0 0 375 0 375 40 0 40 0 0 -336z"/>
</g>
</svg>
